<svg width="488" height="113" viewBox="0 0 488 113" fill="none" xmlns="http://www.w3.org/2000/svg">
<path d="M37.75 21.4541C43.2285 21.4541 47.9014 22.4063 51.7686 24.3105V37.7578L51.6807 37.8457C50.04 35.3262 46.583 33.6562 41.3096 32.8359C39.7568 32.5723 37.7939 32.4404 35.4209 32.4404C33.0479 32.4404 30.7188 32.8945 28.4336 33.8027C26.1484 34.6816 24.2734 35.9414 22.8086 37.582C19.9668 40.7754 18.5459 45.3311 18.5459 51.249C18.5459 58.1338 20.3477 63.2607 23.9512 66.6299C26.9395 69.4424 30.8945 70.8486 35.8164 70.8486C41.3828 70.8486 45.8945 69.6621 49.3516 67.2891C50.6113 66.4395 51.6807 65.3848 52.5596 64.125L52.6914 64.2129V76.5176C48.209 80.2383 42.1738 82.0986 34.5859 82.0986C25.6504 82.0986 18.6484 79.2568 13.5801 73.5732C8.7168 68.1533 6.28516 60.9756 6.28516 52.04C6.28516 42.5771 8.95117 35.1211 14.2832 29.6719C19.6738 24.1934 27.4961 21.4541 37.75 21.4541ZM59.3271 58.2803C59.3271 55.0576 59.8691 51.9814 60.9531 49.0518C62.0664 46.0928 63.6484 43.5146 65.6992 41.3174C70.1816 36.5713 75.9971 34.1982 83.1455 34.1982C90.2646 34.1982 95.9189 36.4395 100.108 40.9219C104.122 45.1992 106.129 50.751 106.129 57.5771C106.129 64.4033 104.063 70.0576 99.9326 74.54C95.5674 79.2861 89.7812 81.6592 82.5742 81.6592C75.1328 81.6592 69.3027 79.3301 65.084 74.6719C61.2461 70.4238 59.3271 64.96 59.3271 58.2803ZM70.0059 58.0166C70.0059 59.8623 70.3135 61.6494 70.9287 63.3779C71.5439 65.1064 72.4229 66.5859 73.5654 67.8164C75.9971 70.4824 79.1904 71.8154 83.1455 71.8154C86.8076 71.8154 89.6934 70.5117 91.8027 67.9043C93.8535 65.3848 94.8789 62.1035 94.8789 58.0605C94.8789 53.959 93.8242 50.6484 91.7148 48.1289C89.459 45.4336 86.3682 44.0859 82.4424 44.0859C78.458 44.0859 75.3379 45.5215 73.082 48.3926C71.0312 51.0293 70.0059 54.2373 70.0059 58.0166ZM126.871 75.375C126.871 77.9531 126.988 79.8281 127.223 81H116.192V35.0771H126.871V38.9883C130.738 35.7949 134.869 34.1982 139.264 34.1982C144.068 34.1982 147.906 35.8389 150.777 39.1201C153.648 42.3721 155.084 46.6641 155.084 51.9961V69.4863C155.084 74.4375 155.157 77.4111 155.304 78.4072C155.45 79.4033 155.641 80.0479 155.875 80.3408C156.139 80.6338 156.358 80.8975 156.534 81.1318L156.446 81.3076C154.073 81.1025 152.345 81 151.261 81H148.185C147.247 81 145.987 81.0439 144.405 81.1318V57.1816C144.405 48.5977 141.798 44.3057 136.583 44.3057C132.716 44.3057 129.479 46.2979 126.871 50.2822V75.375ZM188.351 71.332C192.13 71.332 194.723 70.3506 196.129 68.3877H196.48L196.612 78.583C195.177 80.0186 192.511 80.9707 188.614 81.4395C187.56 81.5859 186.241 81.6592 184.659 81.6592C183.106 81.6592 181.407 81.3662 179.562 80.7803C177.745 80.1943 176.192 79.2422 174.903 77.9238C172.237 75.1992 170.904 70.9365 170.904 65.1357V45.1846H164.269C164.239 44.335 164.225 43.4707 164.225 42.5918V35.8242C164.225 35.3262 164.239 35.0771 164.269 35.0771H170.904V22.5527H181.671V35.0771H193.756V45.1846H181.671V63.1143C181.671 67.7139 182.945 70.3359 185.494 70.9805C186.314 71.2148 187.267 71.332 188.351 71.332ZM204.171 21.9814C206.515 18.3193 208.961 15.0967 211.51 12.3135L220.958 19.7402C219.698 21.293 218.526 22.8164 217.442 24.3105C217.442 24.3105 216.314 25.9072 214.059 29.1006L204.171 21.9814ZM215.729 76.0781C215.729 78.5977 215.787 80.2383 215.904 81H204.742V35.0771H215.729V76.0781ZM239.723 75.375C239.723 77.9531 239.84 79.8281 240.074 81H229.044V35.0771H239.723V38.9883C243.59 35.7949 247.721 34.1982 252.115 34.1982C256.92 34.1982 260.758 35.8389 263.629 39.1201C266.5 42.3721 267.936 46.6641 267.936 51.9961V69.4863C267.936 74.4375 268.009 77.4111 268.155 78.4072C268.302 79.4033 268.492 80.0479 268.727 80.3408C268.99 80.6338 269.21 80.8975 269.386 81.1318L269.298 81.3076C266.925 81.1025 265.196 81 264.112 81H261.036C260.099 81 258.839 81.0439 257.257 81.1318V57.1816C257.257 48.5977 254.649 44.3057 249.435 44.3057C245.567 44.3057 242.33 46.2979 239.723 50.2822V75.375ZM412.208 68.2998C412.208 74.8916 412.325 79.125 412.56 81H401.09V35.0771H412.208V39.0322C416.222 35.8096 420.338 34.1982 424.557 34.1982C429.537 34.1982 433.155 36.3516 435.411 40.6582C437.667 38.3438 439.542 36.8203 441.036 36.0879C443.526 34.8281 446.017 34.1982 448.507 34.1982C451.026 34.1982 453.165 34.623 454.923 35.4727C456.681 36.3223 458.131 37.5234 459.273 39.0762C461.588 42.2109 462.745 46.5176 462.745 51.9961V69.4863C462.745 74.4375 462.818 77.4111 462.965 78.4072C463.111 79.4033 463.302 80.0479 463.536 80.3408C463.8 80.6338 464.02 80.8975 464.195 81.1318L464.107 81.3076C461.764 81.1025 460.035 81 458.922 81H455.626C454.542 81 453.209 81.0439 451.627 81.1318V57.3574C451.627 50.502 450.572 46.4297 448.463 45.1406C447.76 44.7305 446.925 44.5254 445.958 44.5254C445.021 44.5254 444.186 44.6426 443.453 44.877C442.721 45.082 442.032 45.4336 441.388 45.9316C440.304 46.7227 439.073 48.2754 437.696 50.5898C437.726 50.8242 437.74 51.0586 437.74 51.293C437.74 51.5273 437.74 55.3945 437.74 62.8945C437.74 70.3945 437.916 76.4297 438.268 81C435.777 81 433.653 81 431.896 81C430.167 81 428.512 81.0439 426.93 81.1318V57.3135C426.93 52.5381 426.637 49.4326 426.051 47.9971C425.494 46.5615 424.894 45.624 424.249 45.1846C423.604 44.7451 422.813 44.5254 421.876 44.5254C418.009 44.5254 414.786 46.3857 412.208 50.1064V68.2998Z" fill="#FF000F"/>
<rect x="289" y="39" width="92" height="16" fill="#FF000F"/>
<rect x="289" y="58" width="92" height="16" fill="#FF000F"/>
<rect y="46" width="488" height="3" fill="black"/>
<rect y="63" width="488" height="3" fill="black"/>
</svg>
